<svg width="71" height="60" viewBox="0 0 71 60" fill="none" xmlns="http://www.w3.org/2000/svg">
<g id="Icon">
<path id="Circle 2" opacity="0.21" d="M40.9326 0C47.1738 0 52.8337 2.48685 56.9775 6.52246C64.9383 12.0189 70.042 20.4922 70.042 30C70.042 39.5076 64.9381 47.9801 56.9775 53.4766C52.8337 57.5124 47.174 60 40.9326 60H29.9326C23.6912 59.9999 18.0315 57.5126 13.8877 53.4766C5.92748 47.9801 0.824219 39.5074 0.824219 30C0.824219 20.4924 5.92721 12.0189 13.8877 6.52246C18.0315 2.48671 23.6914 0.000101453 29.9326 0H40.9326Z" fill="#FEC53D"/>
<g id="icon">
<path id="Combined Shape" fill-rule="evenodd" clip-rule="evenodd" d="M18.1289 24.3164L33.0112 31.7645C33.1715 31.8447 33.3395 31.9026 33.5106 31.9394V46.3846L19.1903 39.0385C18.5324 38.701 18.1289 38.0875 18.1289 37.4248V24.3164ZM52.7374 24.1184V37.4248C52.7374 38.0875 52.3339 38.701 51.676 39.0385L37.3557 46.3846V31.8129C37.3906 31.7978 37.4252 31.7816 37.4594 31.7645L52.7374 24.1184V24.1184Z" fill="#FEC53D"/>
<path id="Path" opacity="0.499209" fill-rule="evenodd" clip-rule="evenodd" d="M18.5962 20.7014C18.778 20.5024 19.0074 20.3343 19.2749 20.2108L34.4163 13.2201C35.0519 12.9266 35.8143 12.9266 36.45 13.2201L51.5913 20.2108C51.7975 20.306 51.9811 20.4277 52.1377 20.5697L35.5368 28.8778C35.4276 28.9325 35.327 28.995 35.2353 29.064C35.1436 28.995 35.0429 28.9325 34.9338 28.8778L18.5962 20.7014Z" fill="#FEC53D"/>
</g>
</g>
</svg>
