<svg width="79" height="60" viewBox="0 0 79 60" fill="none" xmlns="http://www.w3.org/2000/svg">
<g id="Icon">
<path id="Circle 2" opacity="0.3" d="M48.1123 0C54.7308 0 60.6954 2.79682 64.8916 7.27148C73.1288 12.7729 78.3438 20.9144 78.3438 30C78.3438 39.0855 73.1285 47.2261 64.8916 52.7275C60.6953 57.2025 54.731 60 48.1123 60H31.1123C24.4935 59.9999 18.5292 57.2027 14.333 52.7275C6.09646 47.2261 0.881836 39.0852 0.881836 30C0.881836 20.9146 6.0962 12.7729 14.333 7.27148C18.5292 2.79666 24.4938 0.000126896 31.1123 0H48.1123Z" fill="#FF9066"/>
<g id="icon">
<path id="Path 107" opacity="0.78" fill-rule="evenodd" clip-rule="evenodd" d="M37.8465 23.7978C37.8719 23.542 38.087 23.3472 38.344 23.3472H39.173C39.4244 23.3472 39.6367 23.5338 39.6689 23.7831L40.4733 30.0138L46.2005 32.5488C46.3814 32.6289 46.4981 32.8081 46.4981 33.006V33.3972C46.4981 33.7149 46.2056 33.952 45.8947 33.8864L37.469 32.1065C37.2195 32.0538 37.0496 31.8217 37.0748 31.5679L37.8465 23.7978Z" fill="#FF9066"/>
<path id="Combined Shape" opacity="0.901274" d="M29.1416 15.0339C29.2464 14.6941 29.8051 14.6052 30.1035 14.8806L32.5381 17.1287C34.711 16.412 37.1016 16.0134 39.6123 16.0134L40.0791 16.0183C49.8455 16.21 57.6862 22.4025 57.6865 30.0134C57.6865 37.7454 49.5945 44.0134 39.6123 44.0134C29.6302 44.0133 21.5381 37.7454 21.5381 30.0134C21.5381 28.7004 21.7716 27.4294 22.208 26.2244L25.5225 26.9451C25.1644 27.934 24.9805 28.9629 24.9805 30.0134C24.9805 36.2726 31.5315 41.3473 39.6123 41.3474C47.6932 41.3474 54.2441 36.2727 54.2441 30.0134C54.2438 23.9499 48.0961 18.9985 40.3652 18.6951L39.6123 18.6804C37.975 18.6804 36.3807 18.8889 34.877 19.2869L37.3154 21.5378C37.6144 21.8138 37.4025 22.2251 36.9512 22.2449L27.5615 22.657C27.1806 22.6736 26.8764 22.3917 26.9648 22.1042L29.1416 15.0339Z" fill="#FF9066"/>
</g>
</g>
</svg>
