<svg width="79" height="60" viewBox="0 0 79 60" fill="none" xmlns="http://www.w3.org/2000/svg">
<g id="Icon">
<path id="Circle 2" opacity="0.21" d="M48.3618 0C55.4253 0 61.7443 3.18514 65.9634 8.19629C73.4323 13.6652 78.0933 21.4106 78.0933 30C78.0933 38.5892 73.432 46.3339 65.9634 51.8027C61.7443 56.8142 55.4256 60 48.3618 60H30.3618C23.298 59.9999 16.9792 56.8144 12.7603 51.8027C5.29196 46.3339 0.631348 38.589 0.631348 30C0.631348 21.4109 5.29169 13.6652 12.7603 8.19629C16.9792 3.18499 23.2983 0.000135276 30.3618 0H48.3618Z" fill="#4AD991"/>
<g id="icon">
<path id="Path 95" d="M25.3044 40.8889H55.4284C56.5376 40.8889 57.4367 41.5853 57.4367 42.4444C57.4367 43.3036 56.5376 44 55.4284 44H23.2961C22.187 44 21.2878 43.3036 21.2878 42.4444V17.5556C21.2878 16.6964 22.187 16 23.2961 16C24.4052 16 25.3044 16.6964 25.3044 17.5556V40.8889Z" fill="#4AD991"/>
<path id="Path 97" opacity="0.5" d="M32.7942 34.175C32.0356 34.8017 30.7647 34.8335 29.9555 34.2459C29.1464 33.6583 29.1054 32.6739 29.864 32.0472L37.395 25.8249C38.1286 25.2188 39.3477 25.1662 40.1637 25.7056L46.1076 29.6343L53.8521 22.0361C54.5393 21.3618 55.8022 21.2467 56.6727 21.779C57.5433 22.3114 57.6918 23.2895 57.0046 23.9638L47.9674 32.8305C47.2615 33.5231 45.954 33.6227 45.0875 33.0499L39.0144 29.0358L32.7942 34.175Z" fill="#4AD991"/>
</g>
</g>
</svg>
