<svg width="64" height="60" viewBox="0 0 64 60" fill="none" xmlns="http://www.w3.org/2000/svg">
<g id="Icon">
<path id="Circle 2" opacity="0.21" d="M40.7246 0C53.4271 5.07392e-05 63.7246 10.2975 63.7246 23V37C63.7246 49.7025 53.4271 60 40.7246 60H23C10.2975 60 0 49.7025 0 37V23C0 10.2975 10.2975 0 23 0H40.7246Z" fill="#8280FF"/>
<g id="Group">
<path id="Combined Shape" opacity="0.587821" d="M40.3589 24.667C42.7052 24.667 44.6079 26.4579 44.6079 28.667C44.6076 30.8759 42.705 32.667 40.3589 32.667C38.013 32.6668 36.1111 30.8758 36.1108 28.667C36.1108 26.458 38.0128 24.6672 40.3589 24.667ZM27.6138 18C30.742 18 33.2786 20.3876 33.2788 23.333C33.2788 26.2785 30.7421 28.667 27.6138 28.667C24.4856 28.6668 21.9497 26.2784 21.9497 23.333C21.9499 20.3877 24.4857 18.0002 27.6138 18Z" fill="#8280FF"/>
<path id="Combined Shape_2" d="M27.5908 31.3333C34.3707 31.3333 39.9413 34.3908 40.3564 40.9329C40.373 41.1935 40.3558 42.0002 39.292 42.0002H15.8994C15.5442 42.0001 14.8402 41.2785 14.8701 40.9319C15.4192 34.5685 20.9049 31.3333 27.5908 31.3333ZM39.7949 34.0022C44.6185 34.0521 48.557 36.3468 48.8535 41.1995C48.8655 41.3949 48.8532 42.0002 48.085 42.0002H42.625C42.625 38.9995 41.5717 36.2303 39.7949 34.0022Z" fill="#8280FF"/>
</g>
</g>
</svg>
