<svg width="21" height="21" viewBox="0 0 21 21" fill="none" xmlns="http://www.w3.org/2000/svg">
<path d="M15.875 7.33325C15.875 5.97402 15.335 4.67045 14.3739 3.70933C13.4128 2.74821 12.1092 2.20825 10.75 2.20825C9.39077 2.20825 8.0872 2.74821 7.12608 3.70933C6.16495 4.67045 5.625 5.97402 5.625 7.33325C5.625 13.3124 3.0625 15.0208 3.0625 15.0208H18.4375C18.4375 15.0208 15.875 13.3124 15.875 7.33325Z" stroke="black" stroke-width="2" stroke-linecap="round" stroke-linejoin="round"/>
<path d="M12.2276 18.4375C12.0775 18.6964 11.8619 18.9113 11.6026 19.0606C11.3432 19.21 11.0492 19.2886 10.7499 19.2886C10.4506 19.2886 10.1566 19.21 9.89727 19.0606C9.63793 18.9113 9.42239 18.6964 9.27222 18.4375" stroke="black" stroke-width="2" stroke-linecap="round" stroke-linejoin="round"/>
</svg>
