<svg width="20" height="21" viewBox="0 0 20 21" fill="none" xmlns="http://www.w3.org/2000/svg">
<g id="briefcase">
<path id="Vector" d="M16.6665 6.3335H3.33317C2.4127 6.3335 1.6665 7.07969 1.6665 8.00016V16.3335C1.6665 17.254 2.4127 18.0002 3.33317 18.0002H16.6665C17.587 18.0002 18.3332 17.254 18.3332 16.3335V8.00016C18.3332 7.07969 17.587 6.3335 16.6665 6.3335Z" stroke="black" stroke-width="2" stroke-linecap="round" stroke-linejoin="round"/>
<path id="Vector_2" d="M13.3332 18.0002V4.66691C13.3332 4.22488 13.1576 3.80096 12.845 3.4884C12.5325 3.17584 12.1085 3.00024 11.6665 3.00024H8.33317C7.89114 3.00024 7.46722 3.17584 7.15466 3.4884C6.8421 3.80096 6.6665 4.22488 6.6665 4.66691V18.0002" stroke="black" stroke-width="2" stroke-linecap="round" stroke-linejoin="round"/>
</g>
</svg>
