<svg width="21" height="21" viewBox="0 0 21 21" fill="none" xmlns="http://www.w3.org/2000/svg">
<g id="clipboard" clip-path="url(#clip0_1683_1994)">
<path id="Vector" d="M13.8372 3.57949L15.5038 3.57756C15.9458 3.57704 16.37 3.75215 16.6829 4.06435C16.9958 4.37654 17.1719 4.80026 17.1724 5.24229L17.1859 16.9089C17.1864 17.351 17.0113 17.7751 16.6991 18.088C16.3869 18.4009 15.9632 18.577 15.5212 18.5775L5.52119 18.5891C5.07917 18.5896 4.65504 18.4145 4.34212 18.1023C4.02919 17.7901 3.85311 17.3664 3.8526 16.9244L3.83909 5.25773C3.83858 4.8157 4.01368 4.39158 4.32588 4.07865C4.63808 3.76573 5.0618 3.58965 5.50382 3.58913L7.17049 3.5872" stroke="#35373A" stroke-width="2" stroke-linecap="round" stroke-linejoin="round"/>
<path id="Vector_2" d="M13.002 1.91378L8.00203 1.91957C7.5418 1.9201 7.16913 2.29363 7.16967 2.75386L7.1716 4.42053C7.17213 4.88077 7.54566 5.25343 8.00589 5.2529L13.0059 5.24711C13.4661 5.24658 13.8388 4.87305 13.8383 4.41281L13.8363 2.74615C13.8358 2.28591 13.4623 1.91324 13.002 1.91378Z" stroke="#35373A" stroke-width="2" stroke-linecap="round" stroke-linejoin="round"/>
</g>
<defs>
<clipPath id="clip0_1683_1994">
<rect width="20" height="20" fill="white" transform="translate(0.5 0.261597) rotate(-0.0663431)"/>
</clipPath>
</defs>
</svg>
