<svg width="92" height="74" viewBox="0 0 92 74" fill="none" xmlns="http://www.w3.org/2000/svg">
<path d="M52.5 8V7.5H52H8H7.5V8V66V66.5H8H52H52.5V66V51.7C52.5 49.7761 54.0761 48.2 56 48.2C57.9239 48.2 59.5 49.7761 59.5 51.7V70C59.5 71.9581 58.0908 73.5 56.2 73.5H4C2.07614 73.5 0.5 71.9239 0.5 70V4C0.5 2.07614 2.07614 0.5 4 0.5H56.2C58.0908 0.5 59.5 2.04189 59.5 4V22.3C59.5 24.2239 57.9239 25.8 56 25.8C54.0761 25.8 52.5 24.2239 52.5 22.3V8ZM90.4442 34.3513L90.4464 34.3536C91.844 35.7511 91.8604 37.9391 90.4405 39.4525L74.7453 55.2476L74.7341 55.2588L74.7237 55.2707C74.1356 55.9429 73.1837 56.3 72.3 56.3C71.4391 56.3 70.5675 55.9575 69.8593 55.2522C68.5309 53.8294 68.4646 51.6425 69.8536 50.2536L69.8555 50.2516L78.7555 41.2516L79.6001 40.3975L78.399 40.4L29.9 40.5C29.8997 40.5 29.8994 40.5 29.899 40.5C27.9756 40.4995 26.4 38.9235 26.4 37C26.4 35.0761 27.9761 33.5 29.9 33.5H29.901L78.401 33.4L79.5952 33.3975L78.7555 32.5484L69.8555 23.5484L69.8536 23.5464C68.4488 22.1417 68.4488 19.9583 69.8536 18.5536C71.258 17.1491 73.4408 17.1488 74.8456 18.5527C74.8459 18.553 74.8461 18.5533 74.8464 18.5536L90.4442 34.3513Z" fill="black" stroke="black"/>
</svg>
