<svg width="21" height="21" viewBox="0 0 21 21" fill="none" xmlns="http://www.w3.org/2000/svg">
<g id="file-text">
<path id="Vector" d="M12.0417 2H5.20833C4.75526 2 4.32073 2.17998 4.00036 2.50036C3.67998 2.82073 3.5 3.25526 3.5 3.70833V17.375C3.5 17.8281 3.67998 18.2626 4.00036 18.583C4.32073 18.9033 4.75526 19.0833 5.20833 19.0833H15.4583C15.9114 19.0833 16.3459 18.9033 16.6663 18.583C16.9867 18.2626 17.1667 17.8281 17.1667 17.375V7.125M12.0417 2L17.1667 7.125M12.0417 2L12.0417 7.125H17.1667M13.75 11.3958H6.91667M13.75 14.8125H6.91667M8.625 7.97917H6.91667" stroke="black" stroke-width="2" stroke-linecap="round" stroke-linejoin="round"/>
</g>
</svg>
