<svg width="21" height="21" viewBox="0 0 21 21" fill="none" xmlns="http://www.w3.org/2000/svg">
<g id="message-circle">
<path id="Vector" d="M18.0111 9.82453C18.0153 10.9244 17.7595 12.0097 17.2648 12.9921C16.6782 14.1692 15.7754 15.1598 14.6576 15.8528C13.5399 16.5459 12.2512 16.914 10.936 16.9161C9.83611 16.9202 8.7508 16.6645 7.76846 16.1697L3.0203 17.7586L4.59813 13.0067C4.1011 12.0255 3.84287 10.9408 3.84446 9.84093C3.84345 8.52573 4.20863 7.23622 4.89909 6.11683C5.58955 4.99745 6.57802 4.0924 7.75379 3.50307C8.73498 3.00604 9.8197 2.74781 10.9196 2.7494L11.3363 2.74892C13.0733 2.84273 14.7148 3.57398 15.9463 4.80263C17.1778 6.03129 17.9128 7.67102 18.0106 9.40786L18.0111 9.82453Z" stroke="black" stroke-width="2" stroke-linecap="round" stroke-linejoin="round"/>
</g>
</svg>
