<svg width="21" height="21" viewBox="0 0 21 21" fill="none" xmlns="http://www.w3.org/2000/svg">
<g clip-path="url(#clip0_766_88)">
<path d="M10.75 12.8125C12.1652 12.8125 13.3125 11.6652 13.3125 10.25C13.3125 8.83477 12.1652 7.6875 10.75 7.6875C9.33477 7.6875 8.1875 8.83477 8.1875 10.25C8.1875 11.6652 9.33477 12.8125 10.75 12.8125Z" stroke="black" stroke-width="2" stroke-linecap="round" stroke-linejoin="round"/>
<path d="M17.0709 12.8126C16.9572 13.0702 16.9233 13.356 16.9735 13.6331C17.0238 13.9102 17.1559 14.1659 17.3528 14.3672L17.404 14.4184C17.5629 14.5771 17.6889 14.7655 17.7748 14.9729C17.8608 15.1803 17.9051 15.4026 17.9051 15.6271C17.9051 15.8516 17.8608 16.0739 17.7748 16.2812C17.6889 16.4886 17.5629 16.677 17.404 16.8357C17.2454 16.9945 17.057 17.1205 16.8496 17.2065C16.6422 17.2925 16.4199 17.3367 16.1954 17.3367C15.9709 17.3367 15.7486 17.2925 15.5412 17.2065C15.3338 17.1205 15.1454 16.9945 14.9867 16.8357L14.9355 16.7845C14.7342 16.5875 14.4785 16.4554 14.2014 16.4052C13.9243 16.355 13.6385 16.3889 13.3809 16.5026C13.1283 16.6109 12.9128 16.7906 12.7611 17.0198C12.6093 17.249 12.5278 17.5175 12.5267 17.7924V17.9376C12.5267 18.3907 12.3468 18.8252 12.0264 19.1456C11.706 19.4659 11.2715 19.6459 10.8184 19.6459C10.3653 19.6459 9.93082 19.4659 9.61044 19.1456C9.29007 18.8252 9.11008 18.3907 9.11008 17.9376V17.8607C9.10347 17.578 9.01195 17.3038 8.84743 17.0738C8.68291 16.8437 8.453 16.6685 8.18758 16.5709C7.92995 16.4572 7.64417 16.4233 7.36708 16.4735C7.08999 16.5238 6.83431 16.6559 6.633 16.8528L6.58175 16.904C6.42309 17.0629 6.23468 17.1889 6.02729 17.2748C5.8199 17.3608 5.5976 17.4051 5.3731 17.4051C5.1486 17.4051 4.9263 17.3608 4.71891 17.2748C4.51152 17.1889 4.32311 17.0629 4.16446 16.904C4.00562 16.7454 3.87962 16.557 3.79365 16.3496C3.70768 16.1422 3.66342 15.9199 3.66342 15.6954C3.66342 15.4709 3.70768 15.2486 3.79365 15.0412C3.87962 14.8338 4.00562 14.6454 4.16446 14.4867L4.21571 14.4355C4.41262 14.2342 4.54472 13.9785 4.59496 13.7014C4.6452 13.4243 4.61128 13.1385 4.49758 12.8809C4.3893 12.6283 4.20952 12.4128 3.98035 12.2611C3.75119 12.1093 3.48265 12.0278 3.20779 12.0267H3.06258C2.6095 12.0267 2.17498 11.8468 1.85461 11.5264C1.53423 11.206 1.35425 10.7715 1.35425 10.3184C1.35425 9.86534 1.53423 9.43082 1.85461 9.11044C2.17498 8.79007 2.6095 8.61008 3.06258 8.61008H3.13946C3.42218 8.60347 3.69638 8.51195 3.9264 8.34743C4.15642 8.18291 4.33163 7.953 4.42925 7.68758C4.54295 7.42995 4.57687 7.14417 4.52663 6.86708C4.47639 6.58999 4.34429 6.33431 4.14737 6.133L4.09612 6.08175C3.93729 5.92309 3.81128 5.73468 3.72531 5.52729C3.63934 5.3199 3.59509 5.0976 3.59509 4.8731C3.59509 4.6486 3.63934 4.4263 3.72531 4.21891C3.81128 4.01152 3.93729 3.82311 4.09612 3.66446C4.25478 3.50562 4.44319 3.37962 4.65058 3.29365C4.85797 3.20768 5.08027 3.16342 5.30477 3.16342C5.52927 3.16342 5.75157 3.20768 5.95896 3.29365C6.16635 3.37962 6.35476 3.50562 6.51341 3.66446L6.56466 3.71571C6.76597 3.91262 7.02166 4.04472 7.29874 4.09496C7.57583 4.1452 7.86162 4.11128 8.11925 3.99758H8.18758C8.44022 3.8893 8.65568 3.70952 8.80744 3.48035C8.95921 3.25119 9.04065 2.98265 9.04175 2.70779V2.56258C9.04175 2.1095 9.22173 1.67498 9.54211 1.35461C9.86248 1.03423 10.297 0.854248 10.7501 0.854248C11.2032 0.854248 11.6377 1.03423 11.9581 1.35461C12.2784 1.67498 12.4584 2.1095 12.4584 2.56258V2.63946C12.4595 2.91432 12.541 3.18286 12.6927 3.41202C12.8445 3.64119 13.0599 3.82097 13.3126 3.92925C13.5702 4.04295 13.856 4.07687 14.1331 4.02663C14.4102 3.97639 14.6659 3.84429 14.8672 3.64737L14.9184 3.59612C15.0771 3.43729 15.2655 3.31128 15.4729 3.22531C15.6803 3.13934 15.9026 3.09509 16.1271 3.09509C16.3516 3.09509 16.5739 3.13934 16.7812 3.22531C16.9886 3.31128 17.177 3.43729 17.3357 3.59612C17.4945 3.75478 17.6205 3.94319 17.7065 4.15058C17.7925 4.35797 17.8367 4.58027 17.8367 4.80477C17.8367 5.02927 17.7925 5.25157 17.7065 5.45896C17.6205 5.66635 17.4945 5.85476 17.3357 6.01341L17.2845 6.06466C17.0875 6.26597 16.9554 6.52166 16.9052 6.79874C16.855 7.07583 16.8889 7.36162 17.0026 7.61925V7.68758C17.1109 7.94022 17.2906 8.15568 17.5198 8.30744C17.749 8.45921 18.0175 8.54065 18.2924 8.54175H18.4376C18.8907 8.54175 19.3252 8.72173 19.6456 9.04211C19.9659 9.36248 20.1459 9.797 20.1459 10.2501C20.1459 10.7032 19.9659 11.1377 19.6456 11.4581C19.3252 11.7784 18.8907 11.9584 18.4376 11.9584H18.3607C18.0858 11.9595 17.8173 12.041 17.5881 12.1927C17.359 12.3445 17.1792 12.5599 17.0709 12.8126V12.8126Z" stroke="black" stroke-width="2" stroke-linecap="round" stroke-linejoin="round"/>
</g>
<defs>
<clipPath id="clip0_766_88">
<rect width="20.5" height="20.5" fill="white" transform="translate(0.5)"/>
</clipPath>
</defs>
</svg>
