<svg width="21" height="22" viewBox="0 0 21 22" fill="none" xmlns="http://www.w3.org/2000/svg">
<g id="user-plus" clip-path="url(#clip0_1017_2132)">
<path id="Vector" d="M13.3534 18.496L13.3515 16.8294C13.3505 15.9453 12.9983 15.0979 12.3725 14.4735C11.7466 13.8491 10.8984 13.4989 10.0143 13.4999L4.18099 13.5066C3.29693 13.5077 2.44949 13.8598 1.8251 14.4857C1.2007 15.1115 0.850492 15.9598 0.851516 16.8438L0.853446 18.5105" stroke="#35373A" stroke-width="1.25" stroke-linecap="round" stroke-linejoin="round"/>
<path id="Vector_2" d="M7.09398 10.1699C8.93493 10.1678 10.4256 8.67364 10.4235 6.83269C10.4213 4.99174 8.92721 3.50109 7.08626 3.50322C5.24531 3.50535 3.75466 4.99946 3.75679 6.84041C3.75892 8.68136 5.25303 10.172 7.09398 10.1699Z" stroke="#35373A" stroke-width="1.25" stroke-linecap="round" stroke-linejoin="round"/>
<path id="Vector_3" d="M16.6743 7.65894L16.6801 12.6589" stroke="#35373A" stroke-width="1.25" stroke-linecap="round" stroke-linejoin="round"/>
<path id="Vector_4" d="M19.1772 10.1558L14.1772 10.1616" stroke="#35373A" stroke-width="1.25" stroke-linecap="round" stroke-linejoin="round"/>
</g>
<defs>
<clipPath id="clip0_1017_2132">
<rect width="20" height="20" fill="white" transform="translate(0 1.01147) rotate(-0.0663431)"/>
</clipPath>
</defs>
</svg>
